<?xml version="1.0" encoding="utf-8"?>
<svg version="1.1" xmlns="http://www.w3.org/2000/svg" xmlns:xlink="http://www.w3.org/1999/xlink"
	 viewBox="0 0 32 32" >

    <style>
      path{fill:#A35C5C;strike:#A35C5C;}
      g { display: none }
      g:target { display: inline }
    </style>

    <g id="qwe">
    <path d="M31.916 12.274a1.698 1.698 0 00-1.463-1.168l-9.237-.839-3.651-8.547a1.701 1.701 0 00-3.129 0l-3.651 8.547-9.239.839a1.705 1.705 0 00-.967 2.976l6.983 6.123-2.059 9.068a1.7 1.7 0 002.53 1.839l7.965-4.763 7.964 4.763a1.7 1.7 0 002.532-1.839l-2.059-9.068 6.983-6.123a1.702 1.702 0 00.496-1.808z"/></g>

	<g id='position_1' >

				<path d="M138.044,190.061c-4.221-1.756-5.631-3.516-7.387-6.684c-1.762-3.166-0.351-14.779-0.702-19
					c-0.353-4.223,1.055-17.592,0.702-22.518c-0.351-4.928-4.926-3.166-5.275-5.629c-0.354-2.465-0.707-6.686,0.35-10.557
					c1.058-3.873,1.405-16.537,1.405-22.156c0-5.629-0.704-3.871-2.462-6.33c-1.758-2.467-4.224-3.17-5.278-4.928
					c-1.055-1.76,0-3.52,0.707-5.631c0.7-2.111,5.726-1.357,7.737-1.758c3.521-0.703,2.886-2.814,4.572-4.223
					c0,0,1.763-2.816,3.522-3.168c1.761-0.352,2.815-2.814,1.056-5.98c-1.196-2.152-2.815-2.109-2.815-2.109l-0.7-1.76
					c-1.766-3.52-3.873-6.688-8.447-7.744c-4.577-1.053-7.212,0.203-8.379,2.256c-1.121,1.969-1.121,1.969-1.826,3.021
					c-0.702,1.057-1.055,1.41-2.113,1.41c-1.055,0-0.7,1.057-1.055,2.816c-0.348,1.756-2.463,3.164-2.463,4.924
					s3.166,4.223,3.166,4.223s-0.349,2.816-1.757,4.572c-1.409,1.762-5.278,0.354-5.278,0.354s0.705-2.109-0.705-5.631
					c-1.407-3.518-1.756-4.924-3.166-7.389c-1.41-2.463-0.703-4.572-1.41-10.908c-0.7-6.332-1.405-9.146-1.405-11.611
					c0-2.463-1.759-6.684-1.759-9.852c0-3.166-2.462-12.314-3.166-14.074c-0.703-1.76,0-8.445-0.351-10.555
					c-0.353-2.112,0.293-10.311-0.704-12.667c-0.77-1.818-1.407,1.407-1.407,4.927c0,3.516-1.407,9.499-1.059,13.018
					c0.352,3.52,0.706,9.149,1.059,15.48c0.352,6.334,1.407,13.723,1.759,15.133c0.353,1.406-0.701,10.201-0.352,15.48
					c0.352,5.277,0.704,10.906,1.406,13.723c0.704,2.816-1.756,6.334-2.813,11.26c-1.055,4.924-4.928,11.611-7.039,16.533
					c-2.109,4.916-4.222,7.734-9.501,10.195c-5.276,2.465-15.479,11.613-19.353,16.535c-3.868,4.93-16.183,20.41-17.594,21.818
					c-1.403,1.406-4.221,0.352-7.387,2.111c-3.168,1.758-14.779,15.832-17.24,19.35c-2.462,3.52-9.854,12.668-11.261,16.186
					c-1.407,3.52-2.814,3.168-1.056,4.926c1.758,1.758,4.576,1.057,7.389,0.703c2.813-0.35,0.352-3.162,0.352-5.629
					c0-2.465,0-1.406,1.762-2.465c1.755-1.051,2.814-4.57,7.035-6.684c4.221-2.107,8.444-5.277,12.669-8.443
					c4.222-3.166,7.737-7.742,7.737-7.742s4.227-0.352,7.392-2.814c3.166-2.459,9.147-7.387,14.075-9.85
					c4.925-2.463,6.332-2.816,10.554-5.635c4.225-2.809,5.28-3.162,5.28-3.162s13.367,4.943,20.757,6.002
					c7.39,1.057,16.188-1.781,16.188-1.781s1.054-0.352,2.813,2.113c1.76,2.463,2.111,0.701,4.222,1.055
					c2.11,0.352-0.703,4.221-0.703,6.332c0,2.109,1.407,8.096,2.462,13.371c1.055,5.277,1.762,11.258,2.113,14.076
					c0.353,2.809-0.706,5.98,1.406,7.389c2.112,1.406,6.334,1.055,8.09,0.352c1.763-0.705,7.396,1.406,10.209,1.055
					c2.814-0.352,4.573-0.701,4.573-1.76C147.195,192.879,142.268,191.823,138.044,190.061z M118.692,111.247
					c-0.351,1.055-0.351,11.964-0.351,15.13c0,3.168-0.353,6.334-1.759,7.037c-1.407,0.705-5.275-0.354-9.852-0.354
					c-4.575,0-8.448-1.408-8.448-1.408s1.059-4.924,3.873-7.74c2.813-2.814,9.151-9.847,11.261-11.257
					C115.528,111.247,119.045,110.192,118.692,111.247z"/>

	</g>
	<g id='position_2'>

				<path d="M148.017,128.209c-3.481-2.984-18.134-1.537-18.134-1.537s-3.025-3.301-4.951-6.607
					c-1.925-3.295-5.776-11.002-7.978-15.402c-2.2-4.402-5.225-11.826-9.63-17.328c-4.397-5.5-6.598-6.326-9.902-9.629
					c-3.3-3.305-4.401-3.029-5.777-6.883c-1.374-3.852-0.272-4.951,0-9.078c0.276-4.127,0.276-9.354,0-13.203
					c-0.272-3.854,0.553-7.428,0-10.729c-0.549-3.303-6.875-18.43-7.975-22.006c-1.101-3.576-4.127-8.805-6.602-10.73
					c-2.476-1.926-3.852-3.851-6.052-3.851c-0.923,0-1.166,0.242-1.18,0.462c-0.67-0.831-3.25-2.094-4.047-1.561
					c-0.825,0.549,2.75,3.023,1.375,3.299c-1.375,0.277-1.925,0.277-1.099,1.101c0.823,0.827,2.2-0.276,2.752,1.099
					c0.548,1.377,1.375,2.752,0.273,2.752c-1.103,0-4.126-2.198-4.952-1.375c-0.825,0.824,1.1,2.477,2.749,3.027
					c1.652,0.547,3.853,1.375,6.055,3.023c2.201,1.652,2.75-0.549,3.85,0.828c1.65,2.475,3.852,15.404,4.677,20.08
					s1.101,4.4,1.376,5.775c0.276,1.377-0.275,4.404-0.275,9.631s-0.825,6.875-1.926,10.727c-1.101,3.85-1.101,9.354-1.101,11.279
					s-1.375,0.275-2.475,0c-1.102-0.275-3.303-2.477-4.951-3.301c-1.653-0.824-3.301-0.824-3.301-0.824l-0.827-1.377
					c0,0-2.751-1.1-4.125-1.375c-1.377-0.277-5.503,0.584-7.429,0.861c-1.925,0.275-4.677,2.439-6.052,4.916
					c-1.375,2.475-2.75,2.75-0.825,10.734c1.926,7.975,11.83,8.801,14.03,7.975c2.201-0.822,4.128-2.75,5.502-2.75
					c1.374,0,0.826,1.375-0.273,2.477c-1.1,1.1-3.302,8.252-4.952,8.801c-1.653,0.553-4.127,3.303-5.777,5.227
					c-1.652,1.926-11.555,10.729-12.93,11.832c-1.375,1.1-1.925,1.375-6.051,3.025c-4.126,1.648-18.981,12.102-20.358,12.377
					c-1.375,0.275-3.851,2.201-5.775,2.477c-1.926,0.273-2.201,0.273-4.402,0.273c-2.201,0-2.476,1.377-3.301,1.102
					c-0.825-0.275-0.549-2.199-1.375-3.852c-0.827-1.65-0.275-2.475-1.649-2.475c-1.375,0-1.375,1.648-1.375,3.025
					c0,1.375-1.1,1.926-0.825,4.676c0.276,2.75,2.201,7.701,3.023,10.176c0.827,2.479-0.272,2.205,0.277,4.406
					c0.549,2.197,1.65,3.576,4.677,3.301c3.025-0.273,6.264-2.004,10.738-2.996c4.475-0.996,17.896,0,22.868,0
					c4.97,0,14.418-1.988,19.39-3.479c4.97-1.496,9.175,1.799,14.914,1.49c6.04-0.322,9.944-1.992,9.944-1.992
					s2.485,1.492,4.968,1.492c2.489,0,0.996-0.99,2.489-1.984c1.49-0.996,4.473,0.994,6.958,0.994c2.486,0,12.429,0.99,17.399,0.494
					c4.971-0.494,11.72,1.42,14.395,1.576c4.68,0.277,7.976,0.416,11.954-1.576c3.979-1.99,10.94-5.467,10.94-10.439
					C154.979,131.689,151.497,131.191,148.017,128.209z M87.245,126.121c-0.825,1.924-16.229,1.648-18.981,2.199
					c-2.75,0.551-7.427-0.824-10.454,0.551c-3.025,1.375-11.277,5.227-12.378,6.326c-1.1,1.1-5.501,2.75-10.178,4.127
					c-4.677,1.375-12.378,3.025-14.578,3.025c-2.202,0-5.503-0.551-5.503-0.551s4.953-7.426,7.427-8.252
					c2.477-0.826,16.232-5.502,19.808-6.875c3.576-1.377,5.226-4.127,7.702-5.502s13.756-12.107,16.231-12.379
					c2.477-0.273,5.5,0,8.804,1.648c3.299,1.654,11.001,5.5,12.102,7.705C88.346,120.344,88.069,124.193,87.245,126.121z"/>

	</g>
</svg>