<svg xmlns="http://www.w3.org/2000/svg" viewBox="0 0 32 32"><path d="M16 .667C7.16.667 0 7.707 0 16.39c0 6.948 4.584 12.84 10.94 14.917.8.148 1.093-.339 1.093-.756 0-.373-.013-1.363-.02-2.673-4.451.948-5.389-2.109-5.389-2.109-.728-1.815-1.78-2.3-1.78-2.3-1.449-.975.112-.955.112-.955 1.607.109 2.451 1.62 2.451 1.62 1.427 2.404 3.745 1.709 4.66 1.308.144-1.017.556-1.709 1.013-2.103-3.553-.393-7.288-1.745-7.288-7.769 0-1.716.62-3.119 1.647-4.219-.18-.397-.72-1.996.14-4.161 0 0 1.34-.421 4.4 1.612 1.28-.349 2.64-.523 4-.531 1.36.008 2.72.181 4 .531 3.04-2.033 4.38-1.612 4.38-1.612.86 2.165.32 3.764.16 4.161 1.02 1.1 1.64 2.503 1.64 4.219 0 6.04-3.74 7.369-7.3 7.756.56.472 1.08 1.436 1.08 2.909 0 2.104-.02 3.795-.02 4.305 0 .412.28.904 1.1.747C27.42 29.223 32 23.327 32 16.39 32 7.707 24.836.667 16 .667z"/></svg>