<svg xmlns="http://www.w3.org/2000/svg" viewBox="0 0 32 32"><path fill="#069" d="M0 2.292C0 1.027 1.059 0 2.365 0h27.27C30.941 0 32 1.027 32 2.292v27.416C32 30.974 30.941 32 29.635 32H2.365C1.059 32 0 30.974 0 29.709V2.292z"/><path fill="#fff" d="M9.725 26.78V12.374H4.937V26.78h4.789zM7.331 10.407c1.67 0 2.709-1.106 2.709-2.489-.031-1.414-1.039-2.489-2.677-2.489-1.639 0-2.709 1.075-2.709 2.489 0 1.382 1.039 2.489 2.646 2.489h.031zm5.044 16.373h4.788v-8.044c0-.43.031-.861.158-1.168.346-.861 1.134-1.752 2.457-1.752 1.732 0 2.426 1.321 2.426 3.258v7.706h4.788v-8.26c0-4.425-2.362-6.484-5.512-6.484-2.583 0-3.717 1.444-4.348 2.427h.032v-2.089h-4.788c.063 1.351 0 14.406 0 14.406z"/></svg>