<svg height="512" viewBox="0 0 512 512" width="512" xmlns="http://www.w3.org/2000/svg"><g id="Smiling_Face_With_Smiling_Eyes" data-name="Smiling Face With Smiling Eyes"><g id="Filled"><path d="m504 240c0 128.13-111.033 264-248 264s-248-135.87-248-264 111.033-232 248-232 248 103.87 248 232z" fill="#ffcc80"/><path d="m200 408a270.777 270.777 0 0 1 -164.918-55.7c41.062 84.472 124.574 151.7 220.918 151.7 136.967 0 248-135.87 248-264a219.506 219.506 0 0 0 -32.22-114.413c.132 3.457.22 6.924.22 10.413 0 150.221-121.779 272-272 272z" fill="#ffb74d"/><g fill="#ffe4c0"><circle cx="440" cy="152" r="24"/><circle cx="72" cy="152" r="24"/></g></g><g id="Outline" fill="#231f20"><path d="m120.27 53.8a7.877 7.877 0 0 0 4.17-1.18 8 8 0 0 0 -8.34-13.65l-.02.01a8 8 0 0 0 4.19 14.82z"/><path d="m506.78 191.53a228.469 228.469 0 0 0 -14.98-45.13 236.371 236.371 0 0 0 -23.67-40.8 245.744 245.744 0 0 0 -31.3-35.49 255.168 255.168 0 0 0 -37.9-29.25 261.591 261.591 0 0 0 -43.45-22.07 267.96 267.96 0 0 0 -47.99-13.93 273.964 273.964 0 0 0 -51.49-4.86h-.01a273.671 273.671 0 0 0 -57.67 6.12 265.5 265.5 0 0 0 -53.08 17.44 8 8 0 0 0 3.29 15.3 7.9 7.9 0 0 0 3.28-.71l.03-.01a251.944 251.944 0 0 1 104.16-22.14c64.2 0 124.54 23.37 169.9 65.79 45.2 42.31 70.09 98.5 70.1 158.21.04 60.17-26.35 125.48-70.59 174.71-47.09 52.42-107.23 81.29-169.36 81.29h-.1c-62.13 0-122.27-28.87-169.36-81.29-44.24-49.23-70.63-114.54-70.59-174.71.01-65.11 30.32-126.91 83.17-169.56a8 8 0 0 0 -10.04-12.46 248.293 248.293 0 0 0 -36.9 36.72 237.907 237.907 0 0 0 -28.09 43.43 226.54 226.54 0 0 0 -24.14 101.87 247.02 247.02 0 0 0 5.21 49.75 277.143 277.143 0 0 0 14.87 48.58 299.218 299.218 0 0 0 23.5 45.76 303.994 303.994 0 0 0 31.1 41.3 286.992 286.992 0 0 0 37.76 35.19 261.159 261.159 0 0 0 43.48 27.36 233.858 233.858 0 0 0 48.19 17.74 216.18 216.18 0 0 0 103.78 0 233.858 233.858 0 0 0 48.19-17.74 261.159 261.159 0 0 0 43.48-27.36 286.992 286.992 0 0 0 37.76-35.19 303.994 303.994 0 0 0 31.1-41.3 299.218 299.218 0 0 0 23.5-45.76 277.143 277.143 0 0 0 14.87-48.58 247.02 247.02 0 0 0 5.21-49.75 227.686 227.686 0 0 0 -5.22-48.47z"/><path d="m128 160a8 8 0 0 0 8-8 24 24 0 0 1 48 0 8 8 0 0 0 16 0 40 40 0 0 0 -80 0 8 8 0 0 0 8 8z"/><path d="m328 152a24 24 0 0 1 48 0 8 8 0 0 0 16 0 40 40 0 0 0 -80 0 8 8 0 0 0 16 0z"/><path d="m72 212a8 8 0 0 0 8 8 50.775 50.775 0 0 0 25-6.179c3.9 27.176 19.269 52.245 44.269 71.69 28.591 22.24 66.497 34.489 106.731 34.489s78.14-12.249 106.735-34.489c25-19.445 40.369-44.514 44.269-71.69a50.775 50.775 0 0 0 24.996 6.179 8 8 0 0 0 0-16c-25.337 0-32.05-21.341-32.308-22.2a8 8 0 1 0 -15.384 4.4 45.49 45.49 0 0 0 7.678 14.633c-.586 56.967-61.359 103.167-135.986 103.167s-135.4-46.2-135.986-103.169a45.49 45.49 0 0 0 7.678-14.633 8 8 0 1 0 -15.369-4.448c-.273.909-6.986 22.25-32.323 22.25a8 8 0 0 0 -8 8z"/></g></g></svg>