<svg aria-hidden="true" style="position:absolute;width:0;height:0" xmlns="http://www.w3.org/2000/svg" overflow="hidden"><defs><symbol id="edit" viewBox="0 0 32 32"><path d="M19.898 5.392l6.51 6.509L9.931 28.378l-6.506-6.509L19.899 5.392zm11.449-1.57L28.444.919c-.521-.52-1.24-.842-2.035-.842s-1.514.322-2.035.842L21.593 3.7l6.51 6.51 3.244-3.244c.403-.402.652-.958.652-1.572s-.249-1.17-.652-1.572zM.018 31.019a.74.74 0 00.901.88l-.005.001 7.254-1.759-6.506-6.509-1.644 7.387z"/></symbol><symbol id="facebook" viewBox="0 0 32 32"><path fill="var(--color1, #485a96)" d="M30.234 32c.975 0 1.766-.791 1.766-1.766V1.766C32 .79 31.209 0 30.234 0H1.766C.79 0 0 .791 0 1.766v28.468C0 31.209.79 32 1.766 32h28.468z"/><path d="M22.079 32V19.608h4.159l.623-4.829h-4.782v-3.083c0-1.398.388-2.351 2.393-2.351l2.557-.001V5.025c-.442-.059-1.96-.19-3.726-.19-3.687 0-6.212 2.251-6.212 6.384v3.562h-4.17v4.829h4.17v12.392h4.987z"/></symbol><symbol id="github" viewBox="0 0 32 32"><path d="M16 .667C7.16.667 0 7.707 0 16.39c0 6.948 4.584 12.84 10.94 14.917.8.148 1.093-.339 1.093-.756 0-.373-.013-1.363-.02-2.673-4.451.948-5.389-2.109-5.389-2.109-.728-1.815-1.78-2.3-1.78-2.3-1.449-.975.112-.955.112-.955 1.607.109 2.451 1.62 2.451 1.62 1.427 2.404 3.745 1.709 4.66 1.308.144-1.017.556-1.709 1.013-2.103-3.553-.393-7.288-1.745-7.288-7.769 0-1.716.62-3.119 1.647-4.219-.18-.397-.72-1.996.14-4.161 0 0 1.34-.421 4.4 1.612 1.28-.349 2.64-.523 4-.531 1.36.008 2.72.181 4 .531 3.04-2.033 4.38-1.612 4.38-1.612.86 2.165.32 3.764.16 4.161 1.02 1.1 1.64 2.503 1.64 4.219 0 6.04-3.74 7.369-7.3 7.756.56.472 1.08 1.436 1.08 2.909 0 2.104-.02 3.795-.02 4.305 0 .412.28.904 1.1.747C27.42 29.223 32 23.327 32 16.39 32 7.707 24.836.667 16 .667z"/></symbol><symbol id="home" viewBox="0 0 32 32"><path d="M25.375 11.206V3.193h-3.75v4.279L16 1.87 0 17.804v1.952h3.813v10.375h9.979v-6.25h4.375v6.25h10.021V19.756h3.813v-1.952z"/></symbol><symbol id="linkedin" viewBox="0 0 32 32"><path fill="var(--color3, #069)" d="M0 2.292C0 1.027 1.059 0 2.365 0h27.27C30.941 0 32 1.027 32 2.292v27.416C32 30.974 30.941 32 29.635 32H2.365C1.059 32 0 30.974 0 29.709V2.292z"/><path fill="var(--color2, #fff)" d="M9.725 26.78V12.374H4.937V26.78h4.789zM7.331 10.407c1.67 0 2.709-1.106 2.709-2.489-.031-1.414-1.039-2.489-2.677-2.489-1.639 0-2.709 1.075-2.709 2.489 0 1.382 1.039 2.489 2.646 2.489h.031zm5.044 16.373h4.788v-8.044c0-.43.031-.861.158-1.168.346-.861 1.134-1.752 2.457-1.752 1.732 0 2.426 1.321 2.426 3.258v7.706h4.788v-8.26c0-4.425-2.362-6.484-5.512-6.484-2.583 0-3.717 1.444-4.348 2.427h.032v-2.089h-4.788c.063 1.351 0 14.406 0 14.406z"/></symbol><symbol id="star" viewBox="0 0 32 32"><path d="M31.916 12.274a1.706 1.706 0 00-1.456-1.168l-.007-.001-9.237-.839-3.651-8.547a1.703 1.703 0 00-3.124-.011l-.004.011-3.651 8.547-9.239.839a1.706 1.706 0 00-.969 2.974l.002.002 6.983 6.123-2.059 9.068a1.7 1.7 0 002.538 1.834l-.008.004 7.965-4.763 7.964 4.763a1.7 1.7 0 002.529-1.85l.002.012-2.059-9.068 6.983-6.123a1.702 1.702 0 00.493-1.82l.003.012z"/></symbol><symbol id="twitter" viewBox="0 0 32 32"><path fill="var(--color4, #2daae1)" d="M32 16c0 8.837-7.163 16-16 16S0 24.837 0 16 7.163 0 16 0s16 7.163 16 16z"/><path fill="var(--color2, #fff)" d="M26.259 9.635a8.194 8.194 0 01-2.377.659l-.041.004a4.244 4.244 0 001.842-2.299l.009-.03a8.12 8.12 0 01-2.567 1.003l-.053.009-.054.009a4.208 4.208 0 00-7.28 2.876v.004c0 .329.037.651.108.959a11.94 11.94 0 01-8.659-4.377l-.017-.021a4.167 4.167 0 00-.572 2.118c0 1.454.737 2.736 1.859 3.492l.015.009a4.153 4.153 0 01-1.948-.548l.02.011.021.011v.053c0 2.04 1.451 3.74 3.376 4.127a4.091 4.091 0 01-1.103.148h-.006c-.272 0-.535-.026-.792-.074a4.225 4.225 0 003.927 2.923h.004a8.394 8.394 0 01-5.217 1.803 8.57 8.57 0 01-1.057-.065l.041.004a11.798 11.798 0 006.441 1.892h.012-.001c7.742 0 11.976-6.414 11.976-11.976 0-.183-.004-.364-.013-.544a8.73 8.73 0 002.065-2.121l.019-.03.019-.03z"/></symbol></defs></svg>