<!-- Generated by IcoMoon.io -->
<svg version="1.1" xmlns="http://www.w3.org/2000/svg" width="32" height="32" viewBox="0 0 32 32">
<title>star</title>
<path d="M31.916 12.274c-0.211-0.648-0.785-1.107-1.463-1.168l-9.237-0.839-3.651-8.547c-0.27-0.628-0.883-1.033-1.565-1.033s-1.296 0.405-1.564 1.033l-3.651 8.547-9.239 0.839c-0.677 0.063-1.251 0.521-1.463 1.168-0.211 0.648-0.016 1.359 0.496 1.808l6.983 6.123-2.059 9.068c-0.151 0.667 0.108 1.356 0.661 1.756 0.297 0.216 0.647 0.324 0.997 0.324 0.301 0 0.603-0.080 0.872-0.241l7.965-4.763 7.964 4.763c0.584 0.349 1.319 0.317 1.871-0.083 0.553-0.4 0.812-1.089 0.661-1.756l-2.059-9.068 6.983-6.123c0.512-0.449 0.707-1.158 0.496-1.808z"></path>
</svg>
