<svg xmlns="http://www.w3.org/2000/svg" viewBox="0 0 32 32"><path fill="#2daae1" d="M32 16c0 8.837-7.163 16-16 16S0 24.837 0 16 7.163 0 16 0s16 7.163 16 16z"/><path fill="#fff" d="M26.259 9.635a8.194 8.194 0 01-2.377.659l-.041.004a4.244 4.244 0 001.842-2.299l.009-.03a8.12 8.12 0 01-2.567 1.003l-.053.009-.054.009a4.208 4.208 0 00-7.28 2.876v.004c0 .329.037.651.108.959a11.94 11.94 0 01-8.659-4.377l-.017-.021a4.167 4.167 0 00-.572 2.118c0 1.454.737 2.736 1.859 3.492l.015.009a4.153 4.153 0 01-1.948-.548l.02.011.021.011v.053c0 2.04 1.451 3.74 3.376 4.127a4.091 4.091 0 01-1.103.148h-.006c-.272 0-.535-.026-.792-.074a4.225 4.225 0 003.927 2.923h.004a8.394 8.394 0 01-5.217 1.803 8.57 8.57 0 01-1.057-.065l.041.004a11.798 11.798 0 006.441 1.892h.012-.001c7.742 0 11.976-6.414 11.976-11.976 0-.183-.004-.364-.013-.544a8.73 8.73 0 002.065-2.121l.019-.03.019-.03z"/></svg>