<!-- Generated by IcoMoon.io -->
<svg version="1.1" xmlns="http://www.w3.org/2000/svg" width="32" height="32" viewBox="0 0 32 32">
<title>twitter</title>
<path fill="#2daae1" d="M32 16c0 8.837-7.163 16-16 16s-16-7.163-16-16c0-8.837 7.163-16 16-16s16 7.163 16 16z"></path>
<path fill="#fff" d="M26.259 9.635c-0.755 0.335-1.565 0.561-2.418 0.663 0.87-0.521 1.536-1.346 1.851-2.329-0.77 0.465-1.665 0.819-2.62 1.012l-0.054 0.009c-0.767-0.818-1.862-1.329-3.072-1.329-2.324 0-4.208 1.884-4.208 4.209 0 0.329 0.037 0.651 0.108 0.959-3.498-0.176-6.6-1.851-8.676-4.398-0.362 0.622-0.57 1.345-0.57 2.116 0 1.46 0.743 2.748 1.872 3.503-0.703-0.022-1.357-0.215-1.928-0.537l0.021 0.011v0.053c0 2.040 1.451 3.74 3.376 4.127-0.354 0.097-0.725 0.148-1.109 0.148-0.272 0-0.535-0.026-0.792-0.074 0.536 1.672 2.090 2.888 3.931 2.923-1.441 1.129-3.256 1.802-5.227 1.802-0.34 0-0.675-0.020-1.005-0.060 1.863 1.195 4.075 1.892 6.452 1.892 7.742 0 11.976-6.414 11.976-11.976 0-0.183-0.004-0.364-0.013-0.544 0.828-0.603 1.526-1.326 2.084-2.151l0.019-0.030z"></path>
</svg>
