<svg xmlns="http://www.w3.org/2000/svg" viewBox="0 0 32 32"><path fill="#2daae1" d="M32 16c0 8.837-7.163 16-16 16S0 24.837 0 16 7.163 0 16 0s16 7.163 16 16z"/><path fill="#fff" d="M26.259 9.635a8.407 8.407 0 01-2.418.663 4.222 4.222 0 001.851-2.329 8.264 8.264 0 01-2.62 1.012l-.054.009a4.208 4.208 0 00-7.28 2.88c0 .329.037.651.108.959A11.951 11.951 0 017.17 8.431a4.208 4.208 0 001.302 5.619 4.175 4.175 0 01-1.928-.537l.021.011v.053c0 2.04 1.451 3.74 3.376 4.127a4.186 4.186 0 01-1.109.148c-.272 0-.535-.026-.792-.074a4.215 4.215 0 003.931 2.923 8.447 8.447 0 01-6.232 1.742 11.908 11.908 0 006.452 1.892c7.742 0 11.976-6.414 11.976-11.976 0-.183-.004-.364-.013-.544a8.647 8.647 0 002.084-2.151l.019-.03z"/></svg>